<?xml version="1.0" encoding="UTF-8"?>
<svg version="1.1" xmlns="http://www.w3.org/2000/svg" width="512" height="512">
<path d="M0 0 C2.93213495 0.93336797 5.80699531 1.96435954 8.68725586 3.04736328 C9.76177002 3.44383057 10.83628418 3.84029785 11.94335938 4.2487793 C49.7950541 18.56404779 85.49048453 39.17036941 116.37475586 65.35986328 C117.3737793 66.18615234 118.37280273 67.01244141 119.40209961 67.86376953 C135.0364239 80.83891833 150.22185467 94.85040062 163.37475586 110.35986328 C164.22038086 111.31634766 165.06600586 112.27283203 165.93725586 113.25830078 C184.83199569 134.71803936 200.45053014 158.44225434 214.37475586 183.35986328 C214.95386719 184.38031738 214.95386719 184.38031738 215.54467773 185.42138672 C235.77719077 221.20523344 248.47663968 262.19569502 254.74975586 302.67236328 C254.91797852 303.75138916 255.08620117 304.83041504 255.25952148 305.94213867 C256.04212034 311.4165193 256.56845795 316.87610053 256.78881836 322.40283203 C256.85383545 323.97133911 256.85383545 323.97133911 256.92016602 325.5715332 C256.37475586 328.35986328 256.37475586 328.35986328 254.07739258 330.70751953 C248.31649171 334.22963128 241.90671103 332.20065465 235.71337891 330.73388672 C234.7766333 330.50733398 233.8398877 330.28078125 232.87475586 330.04736328 C214.93701062 325.94149978 196.75481767 323.9359279 178.37475586 323.35986328 C177.29581055 323.31861328 176.21686523 323.27736328 175.10522461 323.23486328 C131.13621545 322.36741057 85.59702764 332.2157607 46.28881836 351.90551758 C40.65587513 354.65364255 36.66277022 356.10254214 30.37475586 355.35986328 C27.53862831 353.46911158 26.63438756 352.13134035 25.55444336 348.92236328 C25.28203057 343.52148354 27.17135498 339.04227298 28.93725586 333.98486328 C38.05339526 306.61052996 44.10454567 278.15893332 46.37475586 249.35986328 C46.46088135 248.28236816 46.54700684 247.20487305 46.63574219 246.09472656 C47.32694184 236.71829247 47.57790278 227.38344898 47.56225586 217.98486328 C47.56085098 216.87803192 47.56085098 216.87803192 47.55941772 215.74884033 C47.4151499 162.8103673 36.11399953 110.24665119 13.37475586 62.35986328 C12.94195312 61.44205078 12.50915039 60.52423828 12.06323242 59.57861328 C4.42712969 43.5143504 -4.14956733 27.94796157 -14.45166016 13.42675781 C-16.49797735 9.8228216 -16.31352126 7.42069826 -15.62524414 3.35986328 C-12.30425492 -2.41577014 -5.73185171 -1.39764858 0 0 Z " fill="#F5C518" transform="translate(194.625244140625,32.64013671875)"/>
<path d="M0 0 C1.72622184 -0.04109176 1.72622184 -0.04109176 3.48731685 -0.08301365 C4.48355118 -0.11239803 5.47978552 -0.1417824 6.50620878 -0.17205721 C9.76884445 0.20213405 11.61014048 1.21515832 14.24478412 3.14202964 C16.79629965 8.24506071 15.17651843 14.364474 13.51944232 19.53387535 C13.26380511 20.27081626 13.00816791 21.00775718 12.74478412 21.76702964 C12.34102557 22.9410836 12.34102557 22.9410836 11.92911029 24.13885581 C3.80116126 46.79698451 -12.55232546 64.11960828 -33.75521588 75.14202964 C-46.90694763 81.2978344 -60.30817088 83.59812124 -74.74339032 83.54316795 C-76.09247551 83.54878966 -77.44155582 83.5556986 -78.79062861 83.56376392 C-82.45491366 83.58191958 -86.11899139 83.58174109 -89.78331101 83.57818079 C-93.75119088 83.57756377 -97.71900703 83.59417113 -101.68685651 83.6083535 C-109.44041018 83.63315715 -117.1938954 83.64151242 -124.94748545 83.64319063 C-131.24765245 83.64462006 -137.547797 83.65080388 -143.8479569 83.66029251 C-161.72462263 83.68666768 -179.60123455 83.70055568 -197.47791988 83.69830108 C-198.43946418 83.69818122 -199.40100849 83.69806135 -200.39169049 83.69793785 C-201.35441172 83.6978152 -202.31713295 83.69769256 -203.30902755 83.6975662 C-218.94414669 83.69634434 -234.57904999 83.72512656 -250.21410663 83.76735295 C-266.28223575 83.81040618 -282.35025939 83.83116614 -298.41844767 83.82857162 C-307.43432625 83.82757519 -316.44997776 83.83584104 -325.46580434 83.86810577 C-333.13266249 83.89536918 -340.79919035 83.90198838 -348.4660759 83.8815775 C-352.37781371 83.8717598 -356.28891708 83.8716893 -360.20059514 83.89763725 C-363.7800228 83.92113815 -367.35830959 83.91703985 -370.93770831 83.89078485 C-372.84811137 83.88396469 -374.75854895 83.90674073 -376.66881639 83.93050379 C-384.77426435 83.83184186 -384.77426435 83.83184186 -387.60062486 81.84432471 C-388.96352315 80.25129497 -388.96352315 80.25129497 -390.75521588 77.14202964 C-391.25430966 76.32034294 -391.75340344 75.49865623 -392.26762128 74.65206993 C-392.68287564 73.83680839 -393.09813001 73.02154685 -393.52596784 72.18158042 C-394.00608823 71.24685905 -394.48620862 70.31213768 -394.98087811 69.34909141 C-395.72962453 67.85827552 -395.72962453 67.85827552 -396.49349713 66.33734214 C-397.01912747 65.29939506 -397.54475781 64.26144798 -398.08631635 63.19204795 C-399.19051902 61.00382497 -400.29044006 58.81343676 -401.3863194 56.62103355 C-403.06295509 53.27652635 -404.76477368 49.9456588 -406.46810651 46.61468589 C-407.54063731 44.48135853 -408.61165248 42.34726837 -409.68099713 40.21234214 C-410.19028256 39.22251335 -410.699568 38.23268455 -411.22428632 37.21286094 C-414.01762121 31.55216182 -415.54259879 27.47235594 -414.75521588 21.14202964 C-412.54780908 18.17344808 -411.26924216 17.31337173 -407.75521588 16.14202964 C-405.54417899 15.97193916 -403.32880426 15.85675887 -401.11296773 15.76910388 C-400.43129798 15.74093606 -399.74962824 15.71276824 -399.04730183 15.68374684 C-396.74652546 15.58976208 -394.44555109 15.50209097 -392.14452863 15.41435325 C-390.48477008 15.34786778 -388.82502691 15.2809974 -387.1652981 15.21377367 C-382.59108964 15.02963734 -378.01667953 14.85101917 -373.44221878 14.67327619 C-368.51342564 14.48081515 -363.58483474 14.28330039 -358.65621686 14.08641136 C-348.9929319 13.70119501 -339.32946637 13.3207023 -329.6659319 12.94180255 C-318.41127866 12.50035398 -307.1568062 12.05437834 -295.90233819 11.6082365 C-275.81356433 10.81205813 -255.72462284 10.02019002 -235.63558698 9.23065269 C-216.14977552 8.46482089 -196.66409689 7.6957144 -177.17855573 6.9230355 C-152.57835246 5.94754701 -127.97803412 4.97501306 -103.3776191 4.00487966 C-95.5374346 3.69560892 -87.69729228 3.38528303 -79.85716367 3.07459915 C-70.29138973 2.69558973 -60.72554216 2.31850296 -51.15959854 1.94379979 C-46.28107381 1.75266661 -41.40258404 1.5607376 -36.52417874 1.36657798 C-32.05184786 1.18860749 -27.5794292 1.01303771 -23.1069309 0.83932716 C-21.49505571 0.77631511 -19.88321337 0.71245547 -18.27141018 0.64762806 C-12.18171818 0.40306934 -6.09011971 0.23034029 0 0 Z " fill="#F5C518" transform="translate(455.755215883255,396.8579703569412)"/>
<path d="M0 0 C3.12562062 2.41991645 4.1775276 5.40070991 5.6015625 9.01953125 C5.95815193 9.92217209 5.95815193 9.92217209 6.32194519 10.8430481 C7.10064822 12.82878588 7.86449674 14.81972526 8.625 16.8125 C8.88944916 17.50127228 9.15389832 18.19004456 9.42636108 18.89968872 C22.3922534 52.80721762 30.89777867 87.93575171 35 124 C35.11714355 125.02593262 35.23428711 126.05186523 35.35498047 127.10888672 C41.40385886 183.13066834 38.58324641 253.57755566 13 305 C10.88301129 307.59794197 10.37253168 307.94887748 6.92578125 308.421875 C1.89304617 307.88104377 -2.17214444 306.19469732 -6.8125 304.25 C-16.3994401 300.40693749 -25.84317856 297.80860905 -36 296 C-37.03125 295.80921875 -38.0625 295.6184375 -39.125 295.421875 C-61.11275484 293.02804685 -83.48737594 294.74299881 -104.30859375 302.36328125 C-107.55160887 303.13049673 -109.78591186 302.81136674 -113 302 C-116.09314103 299.88364035 -116.85756054 298.58162782 -117.75 294.9375 C-117.37972721 289.59659547 -113.52504441 285.77516876 -110.34375 281.73144531 C-55.29640168 210.80197688 -23.06228825 124.29364434 -14.765625 24.0625 C-14.72977295 23.0710498 -14.6939209 22.07959961 -14.65698242 21.05810547 C-14.59589475 19.16170411 -14.54825728 17.26480074 -14.5168457 15.36767578 C-14.357696 9.86181718 -13.64620297 5.86849964 -11 1 C-7.22016826 -1.45178275 -4.26044782 -1.2040396 0 0 Z " fill="#F5C518" transform="translate(183,78)"/>
</svg>
